<svg width="72" height="72" viewBox="0 0 72 72" fill="none" xmlns="http://www.w3.org/2000/svg">
<path d="M35.874 6.09766C52.385 6.09766 65.769 19.4816 65.769 35.9927C65.769 52.5037 52.385 65.8877 35.874 65.8877C19.363 65.8877 5.979 52.5037 5.979 35.9927C5.979 19.4816 19.363 6.09766 35.874 6.09766ZM35.874 12.0767C29.9242 12.0799 24.1891 14.3008 19.789 18.3057C15.3888 22.3106 12.6394 27.8118 12.0778 33.7351C11.5161 39.6584 13.1826 45.5783 16.7516 50.3389C20.3207 55.0994 25.5361 58.3586 31.3793 59.48C37.2225 60.6014 43.2739 59.5045 48.3518 56.4035C53.4296 53.3025 57.1692 48.4201 58.8403 42.7097C60.5114 36.9994 59.994 30.8712 57.389 25.5219C54.7841 20.1726 50.2787 15.9863 44.7528 13.7807C45.0164 15.5979 44.7159 17.4523 43.8917 19.0933C43.0676 20.7342 41.7596 22.0826 40.1446 22.9564C38.5295 23.8301 36.6851 24.187 34.8607 23.9789C33.0362 23.7707 31.3196 23.0076 29.9428 21.7925C29.371 21.2899 29.0125 20.5881 28.9405 19.8302C28.8684 19.0724 29.0881 18.3156 29.5549 17.7142C30.0217 17.1128 30.7003 16.7121 31.4524 16.5939C32.2044 16.4757 32.9732 16.6489 33.602 17.0781L33.8979 17.3083C34.2608 17.6283 34.6958 17.8554 35.1658 17.9702C35.6357 18.085 36.1265 18.0841 36.596 17.9675C37.0655 17.8509 37.4996 17.6221 37.8612 17.3007C38.2228 16.9794 38.501 16.575 38.672 16.1225C38.8429 15.6699 38.9015 15.1827 38.8426 14.7025C38.7838 14.2223 38.6093 13.7636 38.3341 13.3657C38.0589 12.9679 37.6913 12.6427 37.2628 12.4182C36.8343 12.1936 36.3578 12.0764 35.874 12.0767ZM43.7663 45.6547C44.375 46.1623 44.7573 46.8908 44.829 47.6801C44.9008 48.4694 44.6562 49.2549 44.1489 49.8639C42.14 52.2765 39.2342 53.9297 35.874 53.9297C32.5138 53.9297 29.608 52.2765 27.5991 49.8639C27.114 49.2526 26.8872 48.4757 26.9672 47.6994C27.0472 46.9231 27.4276 46.2088 28.0271 45.7092C28.6267 45.2096 29.3978 44.9642 30.1758 45.0255C30.9539 45.0868 31.6771 45.45 32.1909 46.0374C33.2642 47.3229 34.5766 47.9507 35.874 47.9507C37.1714 47.9507 38.4838 47.3229 39.5571 46.0374C40.0646 45.4287 40.7931 45.0464 41.5825 44.9746C42.3718 44.9029 43.1573 45.1475 43.7663 45.6547ZM25.4108 30.0137C26.6001 30.0137 27.7406 30.4861 28.5816 31.3271C29.4226 32.168 29.895 33.3086 29.895 34.4979C29.895 35.6872 29.4226 36.8278 28.5816 37.6688C27.7406 38.5097 26.6001 38.9822 25.4108 38.9822C24.2215 38.9822 23.0809 38.5097 22.2399 37.6688C21.3989 36.8278 20.9265 35.6872 20.9265 34.4979C20.9265 33.3086 21.3989 32.168 22.2399 31.3271C23.0809 30.4861 24.2215 30.0137 25.4108 30.0137ZM46.3373 30.0137C47.5266 30.0137 48.6671 30.4861 49.5081 31.3271C50.3491 32.168 50.8215 33.3086 50.8215 34.4979C50.8215 35.6872 50.3491 36.8278 49.5081 37.6688C48.6671 38.5097 47.5266 38.9822 46.3373 38.9822C45.148 38.9822 44.0074 38.5097 43.1664 37.6688C42.3255 36.8278 41.853 35.6872 41.853 34.4979C41.853 33.3086 42.3255 32.168 43.1664 31.3271C44.0074 30.4861 45.148 30.0137 46.3373 30.0137Z" fill="white"/>
</svg>
