<svg width="80" height="80" viewBox="0 0 80 80" fill="none" xmlns="http://www.w3.org/2000/svg">
<path d="M6.66666 54.9993C6.66666 54.1153 7.01785 53.2674 7.64297 52.6423C8.26809 52.0172 9.11593 51.666 9.99999 51.666H20V39.9993L40 26.666L60 39.9993V51.666H70C70.884 51.666 71.7319 52.0172 72.357 52.6423C72.9821 53.2674 73.3333 54.1153 73.3333 54.9993V69.9993C73.3333 70.8834 72.9821 71.7313 72.357 72.3564C71.7319 72.9815 70.884 73.3327 70 73.3327H6.66666V54.9993Z" stroke="white" stroke-width="8" stroke-linejoin="round"/>
<path d="M40 10V26.6667" stroke="white" stroke-width="8" stroke-linecap="round"/>
<path d="M46.6667 73.3329V51.6662H33.3333V73.3329M30 73.3329H50M60 19.9996V9.99957C60 9.99957 57.5 14.9996 50 9.99957C42.5 4.99957 40 9.99957 40 9.99957V19.9996C40 19.9996 42.5 14.9996 50 19.9996C57.5 24.9996 60 19.9996 60 19.9996Z" stroke="white" stroke-width="8" stroke-linecap="round" stroke-linejoin="round"/>
</svg>
