<svg width="97" height="96" viewBox="0 0 97 96" fill="none" xmlns="http://www.w3.org/2000/svg">
<path d="M88.1912 29.2779L89.8264 26.5795C89.8264 26.5795 91.2661 24.1927 91.2661 20.9874C91.2661 13.2229 83.8576 13.4279 83.8576 13.4279L67.7169 9.03397L58.9115 0.327148L47.3252 3.48156L43.5256 2.44704L40.6381 5.3027L23.9571 9.84443C23.9571 9.84443 17.537 9.66803 17.537 16.3964C17.537 19.1742 18.7861 21.2432 18.7861 21.2432L20.933 24.787L19.0467 26.6494L9.73439 29.1857C9.73439 29.1857 2.32589 28.9807 2.32589 36.7452C2.3407 38.5542 2.76387 40.3365 3.56382 41.9591L0.689087 44.802L2.19717 45.3995C2.23054 45.4806 2.24325 45.5712 2.30841 45.6363C5.22445 48.5587 4.9845 52.4839 4.56814 54.6038L2.8058 56.3693L16.1561 62.7878L34.4914 93.0527C37.4297 97.6707 43.667 94.7816 43.667 94.7816L90.783 72.1271L89.0207 70.3615C88.6043 68.2416 88.3644 64.3165 91.2804 61.3925C91.3456 61.3274 91.3583 61.2368 91.3917 61.1573L92.8997 60.5582L84.1389 51.8975L94.1981 47.0618L92.6709 45.5314C92.3102 43.6944 92.102 40.2921 94.6303 37.759C94.6859 37.7018 94.6955 37.6255 94.7256 37.554L96.0367 37.0344L88.1912 29.2779ZM79.157 15.2379L77.1706 18.3812L72.0313 13.2992L79.157 15.2379ZM59.7665 8.50162L67.1448 16.3885L40.4649 26.0297L34.164 16.247L59.7665 8.50162ZM22.53 27.4249L40.7367 57.4769L6.0508 43.7182L22.53 27.4249ZM14.942 30.7097L12.8046 32.8232L11.9496 31.5122L14.942 30.7097ZM8.19294 32.3528L10.1825 35.4151L5.87123 39.6771C5.53241 38.7363 5.35459 37.7451 5.34523 36.7452C5.34523 33.8434 6.78498 32.739 8.19294 32.3528ZM5.70119 55.9879L5.72503 55.8957L45.6868 73.3872L6.03809 54.4862C6.07464 54.2716 6.10324 54.0349 6.13343 53.7965L37.1738 66.7955L6.24149 52.3091C6.24753 51.647 6.20183 50.9855 6.10483 50.3306L34.8346 62.1616L5.71867 48.6366C5.53228 48.0103 5.282 47.4049 4.97178 46.8298L44.514 63.7142L45.4135 65.1985C47.268 68.1129 50.6322 67.5742 52.3277 67.0689C54.6717 68.2258 58.8734 70.9018 57.7975 74.8445C57.2302 76.9294 55.9827 77.9401 53.9852 77.9401C51.9622 77.9401 49.9425 76.8817 49.9218 76.8674L5.70119 55.9879ZM45.5025 76.8992L42.3782 78.1928L39.7244 74.1198L45.5025 76.8992ZM33.4028 85.4503L21.1205 65.1746L33.3282 71.0433L39.1015 79.9297C36.7734 80.9245 34.172 83.1953 33.4028 85.4503ZM87.4856 66.0884C87.3886 66.7433 87.3429 67.4048 87.3489 68.0668L56.4166 82.5533L87.457 69.5543C87.4872 69.791 87.5142 70.0294 87.5523 70.2439L47.9036 89.1466L87.8654 71.6551L87.8892 71.7473L43.6686 92.6236C43.6479 92.6379 41.6313 93.6963 39.6052 93.6963C37.6061 93.6963 36.3602 92.684 35.7929 90.6007C34.3341 85.2501 42.6293 82.2164 42.7533 82.1703L50.0235 79.0684C50.8038 79.4005 56.3705 81.5855 59.099 77.2965L60.82 74.4583L88.6202 62.5875C88.3095 63.1626 88.0586 63.768 87.8717 64.3944L58.7558 77.9194L87.4856 66.0884ZM87.5396 59.476L63.9808 69.2396L70.5185 58.4479L81.2721 53.2784L87.5396 59.476ZM91.3424 41.8256C91.2585 42.3932 91.2187 42.9665 91.2232 43.5403L64.4178 56.0944L91.3186 44.829C91.3456 45.034 91.3678 45.2422 91.4012 45.4266L57.0379 61.8073L91.6713 46.6486L91.692 46.7281L53.367 64.8234C53.3496 64.8346 51.5999 65.7531 49.8455 65.7531C48.1118 65.7531 47.0328 64.8743 46.5417 63.069C45.2768 58.432 52.466 55.8036 52.5741 55.7638L92.3245 38.792C92.0567 39.2912 91.8401 39.8161 91.6777 40.3588L66.4424 52.0802L91.3424 41.8256Z" fill="white"/>
</svg>
