<svg width="72" height="72" viewBox="0 0 72 72" fill="none" xmlns="http://www.w3.org/2000/svg">
<path d="M70.1392 64.9446L65.0987 69.9851C64.4337 70.6462 63.534 71.0173 62.5962 71.0173C61.6585 71.0173 60.7588 70.6462 60.0937 69.9851L17.9239 27.8862C16.7697 28.221 15.5759 28.4001 14.3743 28.4187C12.1142 28.4171 9.88719 27.876 7.87837 26.8404C5.86954 25.8048 4.13695 24.3046 2.82463 22.4646C1.51232 20.6246 0.658202 18.4979 0.333293 16.2613C0.00838379 14.0247 0.222071 11.7429 0.956588 9.60553L9.97269 18.6216L11.854 16.7403L16.8945 11.6998L18.7758 9.81852L9.75971 0.802407C11.8971 0.0678899 14.1789 -0.145797 16.4155 0.179112C18.6521 0.50402 20.7788 1.35814 22.6188 2.67045C24.4588 3.98277 25.959 5.71536 26.9945 7.72419C28.0301 9.73301 28.5712 11.96 28.5728 14.2201C28.5543 15.4217 28.3752 16.6155 28.0404 17.7697L70.1392 59.9395C70.8004 60.6046 71.1714 61.5043 71.1714 62.4421C71.1714 63.3798 70.8004 64.2795 70.1392 64.9446ZM1.20506 59.9395C0.543938 60.6046 0.172852 61.5043 0.172852 62.4421C0.172852 63.3798 0.543938 64.2795 1.20506 64.9446L6.24556 69.9851C6.91063 70.6462 7.8103 71.0173 8.74807 71.0173C9.68583 71.0173 10.5855 70.6462 11.2506 69.9851L30.6671 50.604L20.6216 40.5585M64.0693 0.0214844L49.8707 7.12078V14.2201L42.168 21.9228L49.2673 29.0221L56.97 21.3194H64.0693L71.1686 7.12078L64.0693 0.0214844Z" fill="white"/>
</svg>
